<mxfile host="Electron" modified="2024-04-30T13:27:13.319Z" agent="Mozilla/5.0 (Windows NT 10.0; Win64; x64) AppleWebKit/537.36 (KHTML, like Gecko) draw.io/22.0.0 Chrome/114.0.5735.289 Electron/25.8.3 Safari/537.36" etag="IwG5gkVp0T93Qw6awyOk" version="22.0.0" type="device">
  <diagram name="Страница — 1" id="4kM-aQrZQW7OodPAAj8S">
    <mxGraphModel dx="757" dy="566" grid="1" gridSize="10" guides="1" tooltips="1" connect="1" arrows="1" fold="1" page="1" pageScale="1" pageWidth="827" pageHeight="1169" math="0" shadow="0">
      <root>
        <mxCell id="0" />
        <mxCell id="1" parent="0" />
        <mxCell id="7g5WvwRU61O9wSF1kZG7-4" value="" style="edgeStyle=orthogonalEdgeStyle;rounded=0;orthogonalLoop=1;jettySize=auto;html=1;" edge="1" parent="1" source="7g5WvwRU61O9wSF1kZG7-1" target="7g5WvwRU61O9wSF1kZG7-2">
          <mxGeometry relative="1" as="geometry" />
        </mxCell>
        <mxCell id="7g5WvwRU61O9wSF1kZG7-1" value="Arr[], Temp [], i, &lt;br&gt;tempI = Arr.lenth" style="rounded=1;whiteSpace=wrap;html=1;" vertex="1" parent="1">
          <mxGeometry x="360" y="240" width="160" height="80" as="geometry" />
        </mxCell>
        <mxCell id="7g5WvwRU61O9wSF1kZG7-5" value="" style="edgeStyle=orthogonalEdgeStyle;rounded=0;orthogonalLoop=1;jettySize=auto;html=1;" edge="1" parent="1" source="7g5WvwRU61O9wSF1kZG7-2" target="7g5WvwRU61O9wSF1kZG7-3">
          <mxGeometry relative="1" as="geometry" />
        </mxCell>
        <mxCell id="7g5WvwRU61O9wSF1kZG7-8" value="" style="edgeStyle=orthogonalEdgeStyle;rounded=0;orthogonalLoop=1;jettySize=auto;html=1;" edge="1" parent="1" source="7g5WvwRU61O9wSF1kZG7-2" target="7g5WvwRU61O9wSF1kZG7-7">
          <mxGeometry relative="1" as="geometry" />
        </mxCell>
        <mxCell id="7g5WvwRU61O9wSF1kZG7-2" value="for i &amp;lt; Arr.lenth" style="rhombus;whiteSpace=wrap;html=1;" vertex="1" parent="1">
          <mxGeometry x="380" y="360" width="120" height="120" as="geometry" />
        </mxCell>
        <mxCell id="7g5WvwRU61O9wSF1kZG7-6" style="edgeStyle=orthogonalEdgeStyle;rounded=0;orthogonalLoop=1;jettySize=auto;html=1;entryX=0;entryY=0.5;entryDx=0;entryDy=0;exitX=0;exitY=0.5;exitDx=0;exitDy=0;" edge="1" parent="1" source="7g5WvwRU61O9wSF1kZG7-3" target="7g5WvwRU61O9wSF1kZG7-2">
          <mxGeometry relative="1" as="geometry">
            <Array as="points">
              <mxPoint x="340" y="560" />
              <mxPoint x="340" y="420" />
            </Array>
          </mxGeometry>
        </mxCell>
        <mxCell id="7g5WvwRU61O9wSF1kZG7-3" value="Temp [i] = Arr [tempI],&lt;br&gt;tempI--,&lt;br&gt;i++" style="shape=parallelogram;perimeter=parallelogramPerimeter;whiteSpace=wrap;html=1;fixedSize=1;" vertex="1" parent="1">
          <mxGeometry x="360" y="520" width="160" height="80" as="geometry" />
        </mxCell>
        <mxCell id="7g5WvwRU61O9wSF1kZG7-7" value="Temp []" style="shape=document;whiteSpace=wrap;html=1;boundedLbl=1;" vertex="1" parent="1">
          <mxGeometry x="530" y="380" width="120" height="80" as="geometry" />
        </mxCell>
      </root>
    </mxGraphModel>
  </diagram>
</mxfile>
